<svg width="512" height="512" viewBox="0 0 512 512" fill="none" xmlns="http://www.w3.org/2000/svg">
<mask id="mask0_8_34" style="mask-type:alpha" maskUnits="userSpaceOnUse" x="0" y="0" width="512" height="512">
<circle cx="256" cy="256" r="256" fill="black"/>
</mask>
<g mask="url(#mask0_8_34)">
<path d="M256 0C397.385 0 512 114.615 512 256C512 397.385 397.385 512 256 512C197.706 512 143.964 492.514 100.929 459.703C105.186 456.78 102.807 458.248 107.458 454.613L135.732 432.541C143.253 426.57 151.037 420.977 158.391 414.81C165.031 409.24 155.293 402.141 151.184 398.046L138.148 385.051L122.959 369.813C119.439 366.266 115.687 362.072 111.692 359.173C106.798 355.775 102.987 361.165 100.379 364.588C96.8806 369.18 93.475 373.689 89.918 378.177L59.8486 420.509C22.4962 376.019 0 318.637 0 256C0 114.615 114.615 0 256 0ZM59.8486 420.509C72.0462 435.037 85.8284 448.19 100.929 459.703C100.792 459.797 100.65 459.897 100.5 460C100.485 459.987 87.0011 448.611 79 441C70.9943 433.385 59.5 421 59.5 421L59.8486 420.509ZM406.982 116.827C403.659 110.315 400.063 111.657 394.433 113.587C366.466 123.174 341.537 138.742 316.962 154.83C299.553 166.742 282.621 179.336 266.207 192.584C257.145 199.898 248.21 207.367 239.404 214.987C234.532 219.21 215.186 237.396 211.3 239.054C207.859 240.521 202.603 240.332 198.832 240.672C190.657 241.408 182.504 242.37 174.332 243.134C169.502 243.585 164.469 243.675 159.691 244.473C158.339 244.699 156.946 245.013 155.744 245.698C151 248.403 140.525 260.038 136.166 264.428C131.63 268.996 123.393 275.463 121.466 281.502C122.018 283.369 122.601 285.744 124.657 286.501C135.731 290.583 147.376 293.318 158.637 296.896C160.458 297.475 162.296 297.968 164.163 298.328C160.538 301.99 149.66 311.352 149.661 315.71C150.361 317.408 151.559 319.318 152.859 320.638C167.772 335.771 182.838 350.788 197.916 365.756C198.556 366.391 201.616 368.789 202.26 368.878C207.37 369.579 217.456 357.343 220.394 354.498C221.167 359.656 223.722 366.33 225.141 371.548C227.282 378.617 229.201 385.896 231.643 392.852C233.488 398.103 238.984 397.89 242.48 394.53C251.662 385.705 260.43 376.399 269.602 367.547C271.169 366.035 272.661 364.451 273.978 362.718C274.757 357.585 275.168 351.123 275.68 345.812L278.006 323.13C278.458 318.329 278.879 311.63 279.711 307.082C284.621 300.92 291.806 293.557 297.145 287.47C308.257 274.764 319.087 261.815 329.626 248.631C337.799 238.341 345.737 227.868 353.436 217.22C355.666 214.119 362.69 203.374 364.604 201.236C364.894 200.509 367.208 197.097 367.81 196.18C370.426 192.236 373.004 188.266 375.543 184.271C384.451 169.945 405.215 132.936 406.982 116.827ZM131.634 333.525C129.498 334.208 127.663 335.07 126.521 337.195C125.889 338.379 125.757 339.769 126.155 341.051C126.523 342.264 128.273 344.426 129.169 345.326C143.983 360.21 158.886 375.012 173.676 389.922C175.552 391.812 177.241 393.041 179.96 393.081C183.612 391.929 184.575 390.322 185.783 386.837C183.233 379.928 166.3 366.586 161.229 360.319C160.88 359.889 157.734 356.737 157.331 356.421C151.856 352.109 139.457 336.644 134.408 334.175C133.547 333.743 132.597 333.521 131.634 333.525Z" fill="white"/>
</g>
</svg>
